<svg width="287" height="91" viewBox="0 0 287 91" fill="none" xmlns="http://www.w3.org/2000/svg">
<path d="M10.3175 39.642C9.70151 39.642 9.18351 39.446 8.76351 39.054C8.37151 38.634 8.17551 38.116 8.17551 37.5V17.34C8.17551 16.696 8.37151 16.178 8.76351 15.786C9.18351 15.394 9.70151 15.198 10.3175 15.198C10.9615 15.198 11.4795 15.394 11.8715 15.786C12.2635 16.178 12.4595 16.696 12.4595 17.34V37.5C12.4595 38.116 12.2635 38.634 11.8715 39.054C11.4795 39.446 10.9615 39.642 10.3175 39.642ZM27.5795 48.042C26.9635 48.042 26.4455 47.846 26.0255 47.454C25.6335 47.034 25.4375 46.516 25.4375 45.9V35.568C25.4375 33.972 25.1435 32.67 24.5555 31.662C23.9675 30.654 23.1695 29.912 22.1615 29.436C21.1815 28.932 20.0475 28.68 18.7595 28.68C17.5835 28.68 16.5195 28.918 15.5675 29.394C14.6155 29.87 13.8595 30.514 13.2995 31.326C12.7395 32.11 12.4595 33.02 12.4595 34.056H9.81351C9.81351 32.292 10.2335 30.724 11.0735 29.352C11.9415 27.952 13.1175 26.846 14.6015 26.034C16.0855 25.222 17.7515 24.816 19.5995 24.816C21.5315 24.816 23.2535 25.236 24.7655 26.076C26.3055 26.888 27.5095 28.092 28.3775 29.688C29.2735 31.284 29.7215 33.244 29.7215 35.568V45.9C29.7215 46.516 29.5115 47.034 29.0915 47.454C28.6995 47.846 28.1955 48.042 27.5795 48.042ZM10.3175 48.042C9.70151 48.042 9.18351 47.846 8.76351 47.454C8.37151 47.034 8.17551 46.516 8.17551 45.9V27.168C8.17551 26.524 8.37151 26.006 8.76351 25.614C9.18351 25.222 9.70151 25.026 10.3175 25.026C10.9615 25.026 11.4795 25.222 11.8715 25.614C12.2635 26.006 12.4595 26.524 12.4595 27.168V45.9C12.4595 46.516 12.2635 47.034 11.8715 47.454C11.4795 47.846 10.9615 48.042 10.3175 48.042ZM44.3214 48.168C42.2774 48.168 40.4434 47.664 38.8194 46.656C37.1954 45.62 35.9074 44.234 34.9554 42.498C34.0314 40.734 33.5694 38.746 33.5694 36.534C33.5694 34.322 34.0734 32.334 35.0814 30.57C36.1174 28.806 37.5034 27.42 39.2394 26.412C41.0034 25.376 42.9774 24.858 45.1614 24.858C47.3454 24.858 49.3054 25.376 51.0414 26.412C52.7774 27.42 54.1494 28.806 55.1574 30.57C56.1934 32.334 56.7114 34.322 56.7114 36.534H55.0734C55.0734 38.746 54.5974 40.734 53.6454 42.498C52.7214 44.234 51.4474 45.62 49.8234 46.656C48.1994 47.664 46.3654 48.168 44.3214 48.168ZM45.1614 44.388C46.5894 44.388 47.8634 44.052 48.9834 43.38C50.1034 42.68 50.9854 41.742 51.6294 40.566C52.2734 39.362 52.5954 38.018 52.5954 36.534C52.5954 35.022 52.2734 33.678 51.6294 32.502C50.9854 31.298 50.1034 30.36 48.9834 29.688C47.8634 28.988 46.5894 28.638 45.1614 28.638C43.7614 28.638 42.4874 28.988 41.3394 29.688C40.2194 30.36 39.3234 31.298 38.6514 32.502C38.0074 33.678 37.6854 35.022 37.6854 36.534C37.6854 38.018 38.0074 39.362 38.6514 40.566C39.3234 41.742 40.2194 42.68 41.3394 43.38C42.4874 44.052 43.7614 44.388 45.1614 44.388ZM54.5694 48.042C53.9534 48.042 53.4354 47.846 53.0154 47.454C52.6234 47.034 52.4274 46.516 52.4274 45.9V39.474L53.2254 35.022L56.7114 36.534V45.9C56.7114 46.516 56.5014 47.034 56.0814 47.454C55.6894 47.846 55.1854 48.042 54.5694 48.042ZM63.1292 57.828C62.5132 57.828 61.9952 57.618 61.5752 57.198C61.1832 56.806 60.9872 56.302 60.9872 55.686V36.534C61.0152 34.322 61.5332 32.334 62.5412 30.57C63.5492 28.806 64.9212 27.42 66.6572 26.412C68.3932 25.376 70.3532 24.858 72.5372 24.858C74.7492 24.858 76.7232 25.376 78.4592 26.412C80.1952 27.42 81.5672 28.806 82.5752 30.57C83.6112 32.334 84.1292 34.322 84.1292 36.534C84.1292 38.746 83.6532 40.734 82.7012 42.498C81.7772 44.234 80.5032 45.62 78.8792 46.656C77.2552 47.664 75.4212 48.168 73.3772 48.168C71.7252 48.168 70.1992 47.832 68.7992 47.16C67.4272 46.46 66.2512 45.522 65.2712 44.346V55.686C65.2712 56.302 65.0752 56.806 64.6832 57.198C64.2912 57.618 63.7732 57.828 63.1292 57.828ZM72.5372 44.388C73.9652 44.388 75.2392 44.052 76.3592 43.38C77.4792 42.68 78.3612 41.742 79.0052 40.566C79.6772 39.362 80.0132 38.018 80.0132 36.534C80.0132 35.022 79.6772 33.678 79.0052 32.502C78.3612 31.298 77.4792 30.36 76.3592 29.688C75.2392 28.988 73.9652 28.638 72.5372 28.638C71.1372 28.638 69.8632 28.988 68.7152 29.688C67.5952 30.36 66.7132 31.298 66.0692 32.502C65.4252 33.678 65.1032 35.022 65.1032 36.534C65.1032 38.018 65.4252 39.362 66.0692 40.566C66.7132 41.742 67.5952 42.68 68.7152 43.38C69.8632 44.052 71.1372 44.388 72.5372 44.388ZM90.5605 57.828C89.9445 57.828 89.4265 57.618 89.0065 57.198C88.6145 56.806 88.4185 56.302 88.4185 55.686V36.534C88.4465 34.322 88.9645 32.334 89.9725 30.57C90.9805 28.806 92.3525 27.42 94.0885 26.412C95.8245 25.376 97.7845 24.858 99.9685 24.858C102.18 24.858 104.154 25.376 105.89 26.412C107.626 27.42 108.998 28.806 110.006 30.57C111.042 32.334 111.56 34.322 111.56 36.534C111.56 38.746 111.084 40.734 110.132 42.498C109.208 44.234 107.934 45.62 106.31 46.656C104.686 47.664 102.852 48.168 100.808 48.168C99.1565 48.168 97.6305 47.832 96.2305 47.16C94.8585 46.46 93.6825 45.522 92.7025 44.346V55.686C92.7025 56.302 92.5065 56.806 92.1145 57.198C91.7225 57.618 91.2045 57.828 90.5605 57.828ZM99.9685 44.388C101.396 44.388 102.67 44.052 103.79 43.38C104.91 42.68 105.792 41.742 106.436 40.566C107.108 39.362 107.444 38.018 107.444 36.534C107.444 35.022 107.108 33.678 106.436 32.502C105.792 31.298 104.91 30.36 103.79 29.688C102.67 28.988 101.396 28.638 99.9685 28.638C98.5685 28.638 97.2945 28.988 96.1465 29.688C95.0265 30.36 94.1445 31.298 93.5005 32.502C92.8565 33.678 92.5345 35.022 92.5345 36.534C92.5345 38.018 92.8565 39.362 93.5005 40.566C94.1445 41.742 95.0265 42.68 96.1465 43.38C97.2945 44.052 98.5685 44.388 99.9685 44.388ZM118.694 58.08C118.414 58.08 118.078 57.996 117.686 57.828C116.454 57.268 116.118 56.386 116.678 55.182L129.488 26.244C130.048 25.068 130.93 24.732 132.134 25.236C133.394 25.768 133.744 26.65 133.184 27.882L120.332 56.778C119.996 57.646 119.45 58.08 118.694 58.08ZM123.65 47.076C123.118 47.3 122.614 47.328 122.138 47.16C121.69 46.964 121.326 46.6 121.046 46.068L111.428 27.798C111.148 27.266 111.106 26.762 111.302 26.286C111.526 25.782 111.904 25.418 112.436 25.194C112.968 24.97 113.472 24.956 113.948 25.152C114.424 25.32 114.788 25.67 115.04 26.202L124.238 44.472C124.518 45.004 124.616 45.522 124.532 46.026C124.476 46.502 124.182 46.852 123.65 47.076ZM137.177 33.636C137.177 31.956 137.583 30.458 138.395 29.142C139.235 27.798 140.355 26.734 141.755 25.95C143.155 25.166 144.695 24.774 146.375 24.774C148.055 24.774 149.301 25.054 150.113 25.614C150.953 26.146 151.275 26.79 151.079 27.546C150.995 27.938 150.827 28.246 150.575 28.47C150.351 28.666 150.085 28.792 149.777 28.848C149.469 28.904 149.133 28.89 148.769 28.806C146.977 28.442 145.367 28.414 143.939 28.722C142.511 29.03 141.377 29.604 140.537 30.444C139.725 31.284 139.319 32.348 139.319 33.636H137.177ZM137.219 48C136.547 48 136.029 47.832 135.665 47.496C135.301 47.132 135.119 46.6 135.119 45.9V27.126C135.119 26.454 135.301 25.936 135.665 25.572C136.029 25.208 136.547 25.026 137.219 25.026C137.919 25.026 138.437 25.208 138.773 25.572C139.137 25.908 139.319 26.426 139.319 27.126V45.9C139.319 46.572 139.137 47.09 138.773 47.454C138.437 47.818 137.919 48 137.219 48ZM162.557 48.168C160.233 48.168 158.161 47.678 156.341 46.698C154.549 45.69 153.135 44.318 152.099 42.582C151.091 40.818 150.587 38.802 150.587 36.534C150.587 34.238 151.063 32.222 152.015 30.486C152.995 28.722 154.339 27.35 156.047 26.37C157.755 25.362 159.715 24.858 161.927 24.858C164.111 24.858 165.987 25.348 167.555 26.328C169.123 27.28 170.313 28.61 171.125 30.318C171.965 31.998 172.385 33.944 172.385 36.156C172.385 36.688 172.203 37.136 171.839 37.5C171.475 37.836 171.013 38.004 170.453 38.004H153.527V34.644H170.327L168.605 35.82C168.577 34.42 168.297 33.174 167.765 32.082C167.233 30.962 166.477 30.08 165.497 29.436C164.517 28.792 163.327 28.47 161.927 28.47C160.331 28.47 158.959 28.82 157.811 29.52C156.691 30.22 155.837 31.186 155.249 32.418C154.661 33.622 154.367 34.994 154.367 36.534C154.367 38.074 154.717 39.446 155.417 40.65C156.117 41.854 157.083 42.806 158.315 43.506C159.547 44.206 160.961 44.556 162.557 44.556C163.425 44.556 164.307 44.402 165.203 44.094C166.127 43.758 166.869 43.38 167.429 42.96C167.849 42.652 168.297 42.498 168.773 42.498C169.277 42.47 169.711 42.61 170.075 42.918C170.551 43.338 170.803 43.8 170.831 44.304C170.859 44.808 170.635 45.242 170.159 45.606C169.207 46.362 168.017 46.978 166.589 47.454C165.189 47.93 163.845 48.168 162.557 48.168ZM184.107 48.168C182.147 48.168 180.327 47.874 178.647 47.286C176.995 46.67 175.707 45.9 174.783 44.976C174.363 44.528 174.181 44.024 174.237 43.464C174.321 42.876 174.601 42.4 175.077 42.036C175.637 41.588 176.183 41.406 176.715 41.49C177.275 41.546 177.751 41.784 178.143 42.204C178.619 42.736 179.375 43.24 180.411 43.716C181.475 44.164 182.651 44.388 183.939 44.388C185.563 44.388 186.795 44.122 187.635 43.59C188.503 43.058 188.951 42.372 188.979 41.532C189.007 40.692 188.601 39.964 187.761 39.348C186.949 38.732 185.451 38.228 183.267 37.836C180.439 37.276 178.381 36.436 177.093 35.316C175.833 34.196 175.203 32.824 175.203 31.2C175.203 29.772 175.623 28.596 176.463 27.672C177.303 26.72 178.381 26.02 179.697 25.572C181.013 25.096 182.385 24.858 183.813 24.858C185.661 24.858 187.299 25.152 188.727 25.74C190.155 26.328 191.289 27.14 192.129 28.176C192.521 28.624 192.703 29.1 192.675 29.604C192.647 30.08 192.409 30.486 191.961 30.822C191.513 31.13 190.981 31.228 190.365 31.116C189.749 31.004 189.231 30.752 188.811 30.36C188.111 29.688 187.355 29.226 186.543 28.974C185.731 28.722 184.793 28.596 183.729 28.596C182.497 28.596 181.447 28.806 180.579 29.226C179.739 29.646 179.319 30.262 179.319 31.074C179.319 31.578 179.445 32.04 179.697 32.46C179.977 32.852 180.509 33.216 181.293 33.552C182.077 33.86 183.225 34.168 184.737 34.476C186.837 34.896 188.489 35.428 189.693 36.072C190.925 36.716 191.807 37.472 192.339 38.34C192.871 39.18 193.137 40.16 193.137 41.28C193.137 42.568 192.787 43.73 192.087 44.766C191.415 45.802 190.407 46.628 189.063 47.244C187.747 47.86 186.095 48.168 184.107 48.168ZM206.114 48.21C204.182 48.21 202.446 47.804 200.906 46.992C199.394 46.152 198.19 44.934 197.294 43.338C196.426 41.742 195.992 39.782 195.992 37.458V27.126C195.992 26.51 196.188 26.006 196.58 25.614C197 25.194 197.518 24.984 198.134 24.984C198.75 24.984 199.254 25.194 199.646 25.614C200.066 26.006 200.276 26.51 200.276 27.126V37.458C200.276 39.026 200.57 40.328 201.158 41.364C201.746 42.372 202.544 43.128 203.552 43.632C204.56 44.108 205.694 44.346 206.954 44.346C208.158 44.346 209.222 44.108 210.146 43.632C211.098 43.156 211.854 42.512 212.414 41.7C212.974 40.888 213.254 39.978 213.254 38.97H215.9C215.9 40.706 215.466 42.274 214.598 43.674C213.758 45.074 212.596 46.18 211.112 46.992C209.656 47.804 207.99 48.21 206.114 48.21ZM215.396 48C214.78 48 214.262 47.804 213.842 47.412C213.45 46.992 213.254 46.474 213.254 45.858V27.126C213.254 26.482 213.45 25.964 213.842 25.572C214.262 25.18 214.78 24.984 215.396 24.984C216.04 24.984 216.558 25.18 216.95 25.572C217.342 25.964 217.538 26.482 217.538 27.126V45.858C217.538 46.474 217.342 46.992 216.95 47.412C216.558 47.804 216.04 48 215.396 48ZM253.139 48.042C252.523 48.042 252.005 47.846 251.585 47.454C251.193 47.034 250.997 46.516 250.997 45.9V33.888C250.997 32.124 250.563 30.822 249.695 29.982C248.827 29.114 247.693 28.68 246.293 28.68C244.837 28.68 243.633 29.184 242.681 30.192C241.757 31.2 241.295 32.488 241.295 34.056H237.809C237.809 32.236 238.201 30.64 238.985 29.268C239.769 27.868 240.861 26.776 242.261 25.992C243.689 25.208 245.313 24.816 247.133 24.816C248.729 24.816 250.143 25.166 251.375 25.866C252.607 26.566 253.559 27.602 254.231 28.974C254.931 30.318 255.281 31.956 255.281 33.888V45.9C255.281 46.516 255.085 47.034 254.693 47.454C254.301 47.846 253.783 48.042 253.139 48.042ZM225.125 48.042C224.509 48.042 223.991 47.846 223.571 47.454C223.179 47.034 222.983 46.516 222.983 45.9V27.21C222.983 26.566 223.179 26.048 223.571 25.656C223.991 25.264 224.509 25.068 225.125 25.068C225.769 25.068 226.287 25.264 226.679 25.656C227.071 26.048 227.267 26.566 227.267 27.21V45.9C227.267 46.516 227.071 47.034 226.679 47.454C226.287 47.846 225.769 48.042 225.125 48.042ZM239.153 48.042C238.537 48.042 238.019 47.846 237.599 47.454C237.207 47.034 237.011 46.516 237.011 45.9V33.888C237.011 32.124 236.577 30.822 235.709 29.982C234.841 29.114 233.707 28.68 232.307 28.68C230.851 28.68 229.647 29.184 228.695 30.192C227.743 31.2 227.267 32.488 227.267 34.056H224.621C224.621 32.236 224.985 30.64 225.713 29.268C226.441 27.868 227.449 26.776 228.737 25.992C230.025 25.208 231.495 24.816 233.147 24.816C234.743 24.816 236.157 25.166 237.389 25.866C238.621 26.566 239.573 27.602 240.245 28.974C240.945 30.318 241.295 31.956 241.295 33.888V45.9C241.295 46.516 241.099 47.034 240.707 47.454C240.315 47.846 239.797 48.042 239.153 48.042ZM271.093 48.168C268.769 48.168 266.697 47.678 264.877 46.698C263.085 45.69 261.671 44.318 260.635 42.582C259.627 40.818 259.123 38.802 259.123 36.534C259.123 34.238 259.599 32.222 260.551 30.486C261.531 28.722 262.875 27.35 264.583 26.37C266.291 25.362 268.251 24.858 270.463 24.858C272.647 24.858 274.523 25.348 276.091 26.328C277.659 27.28 278.849 28.61 279.661 30.318C280.501 31.998 280.921 33.944 280.921 36.156C280.921 36.688 280.739 37.136 280.375 37.5C280.011 37.836 279.549 38.004 278.989 38.004H262.063V34.644H278.863L277.141 35.82C277.113 34.42 276.833 33.174 276.301 32.082C275.769 30.962 275.013 30.08 274.033 29.436C273.053 28.792 271.863 28.47 270.463 28.47C268.867 28.47 267.495 28.82 266.347 29.52C265.227 30.22 264.373 31.186 263.785 32.418C263.197 33.622 262.903 34.994 262.903 36.534C262.903 38.074 263.253 39.446 263.953 40.65C264.653 41.854 265.619 42.806 266.851 43.506C268.083 44.206 269.497 44.556 271.093 44.556C271.961 44.556 272.843 44.402 273.739 44.094C274.663 43.758 275.405 43.38 275.965 42.96C276.385 42.652 276.833 42.498 277.309 42.498C277.813 42.47 278.247 42.61 278.611 42.918C279.087 43.338 279.339 43.8 279.367 44.304C279.395 44.808 279.171 45.242 278.695 45.606C277.743 46.362 276.553 46.978 275.125 47.454C273.725 47.93 272.381 48.168 271.093 48.168Z" fill="#FFC107"/>
<path d="M4 65.5C43.925 81.3471 155.62 103.533 283 65.5" stroke="#FFC107" stroke-width="8" stroke-linecap="round"/>
</svg>
